<?xml version="1.0" standalone="no"?>
<!DOCTYPE svg PUBLIC "-//W3C//DTD SVG 20010904//EN"
 "http://www.w3.org/TR/2001/REC-SVG-20010904/DTD/svg10.dtd">
<svg version="1.0" xmlns="http://www.w3.org/2000/svg"
 width="243.000000pt" height="256.000000pt" viewBox="0 0 243.000000 256.000000"
 preserveAspectRatio="xMidYMid meet">

<g transform="translate(0.000000,256.000000) scale(0.100000,-0.100000)"
fill="#233559" stroke="none">
<path d="M1130 2372 c-36 -21 -180 -105 -320 -186 -140 -81 -289 -168 -331
-192 -44 -26 -81 -54 -87 -69 -20 -43 -48 -32 -81 33 -23 45 -66 72 -113 72
-34 0 -85 -35 -103 -69 -53 -104 62 -211 168 -156 25 13 32 13 58 0 l29 -16 0
-373 0 -374 -27 -17 c-25 -17 -29 -17 -75 0 -45 16 -49 16 -85 -2 -44 -21 -83
-74 -83 -113 0 -38 39 -92 80 -112 29 -14 43 -16 72 -7 42 11 86 58 95 100 8
39 39 47 63 17 10 -13 72 -55 137 -92 65 -38 138 -81 163 -96 25 -15 137 -81
250 -145 113 -65 213 -124 223 -133 26 -23 21 -41 -23 -82 -33 -30 -40 -44
-40 -74 0 -77 52 -126 136 -126 28 0 44 8 70 34 51 51 50 113 -3 168 -51 53
-42 72 58 127 44 25 122 69 172 99 92 54 137 80 322 187 145 84 202 122 209
140 3 10 15 15 28 13 16 -2 24 -12 29 -38 10 -49 68 -100 114 -100 74 0 127
53 127 127 0 67 -68 128 -132 117 -19 -4 -43 -11 -53 -16 -12 -6 -26 -4 -47 9
-29 17 -30 20 -30 88 0 38 -1 207 -1 374 -1 282 0 306 17 318 23 17 42 16 74
-2 33 -19 74 -19 110 0 43 22 60 53 60 108 0 42 -5 54 -34 83 -28 28 -41 34
-78 34 -57 0 -103 -29 -118 -74 -6 -20 -21 -41 -32 -47 -18 -10 -24 -7 -44 19
-13 16 -48 44 -76 60 -97 55 -424 244 -598 347 -145 85 -165 88 -250 37z m256
-158 c82 -47 167 -96 189 -108 40 -23 213 -124 336 -198 41 -24 69 -48 73 -61
3 -12 6 -210 6 -439 l0 -417 -22 -25 c-21 -22 -89 -63 -555 -332 -165 -95
-200 -107 -238 -80 -11 7 -40 24 -65 38 -45 26 -249 144 -480 278 -69 40 -135
82 -147 93 l-23 20 0 433 c0 493 -8 449 95 507 74 42 346 199 520 300 72 42
137 77 146 77 9 0 83 -39 165 -86z"/>
<path d="M1100 1988 c-58 -34 -170 -100 -250 -146 -80 -47 -153 -92 -162 -100
-16 -14 -18 -42 -18 -327 0 -363 -17 -316 145 -410 55 -32 164 -95 241 -141
78 -46 152 -84 165 -84 13 0 98 44 189 97 91 52 203 118 250 145 133 78 120
35 120 385 0 181 -4 312 -10 323 -5 10 -29 29 -52 42 -24 14 -110 64 -193 113
-82 48 -170 99 -195 113 -25 14 -54 31 -65 38 -33 23 -56 16 -165 -48z m454
-369 l26 -20 0 -180 c0 -244 15 -229 -237 -229 l-188 -1 -75 -64 c-41 -36 -82
-64 -90 -62 -11 1 -16 19 -18 65 -3 60 -4 62 -30 62 -15 0 -34 6 -43 13 -34
26 -39 55 -39 220 0 164 0 164 26 191 l27 26 307 0 c296 0 308 -1 334 -21z"/>
<path d="M1006 1454 c-21 -21 -20 -47 3 -68 26 -24 62 -17 80 16 14 24 14 28
-3 47 -23 25 -58 27 -80 5z"/>
<path d="M1186 1454 c-21 -21 -20 -47 2 -67 22 -20 53 -22 70 -5 15 15 15 61
0 76 -17 17 -54 15 -72 -4z"/>
<path d="M1362 1458 c-27 -27 -3 -88 34 -88 31 0 54 21 54 48 0 35 -16 52 -50
52 -14 0 -31 -5 -38 -12z"/>
</g>
</svg>
