<svg width="148" height="176" viewBox="0 0 148 176" fill="none" xmlns="http://www.w3.org/2000/svg">
  <g clip-path="url(#clip0_2_307)" fill="currentColor">
    <path d="M0.172459 1.24973C6.28351 19.973 17.3659 34.8266 31.5975 47.497C43.4672 58.0669 56.919 66.1525 71.4431 72.4462C73.2952 73.2518 74.0525 74.1401 74.0525 76.2782C73.9775 108.906 74 141.535 73.9925 174.163C73.9925 174.75 73.9025 175.338 73.85 175.992C73.2952 175.932 72.8753 176.008 72.5753 175.842C50.8905 163.985 30.1504 150.795 13.6093 131.996C7.10082 124.603 1.83707 116.42 0.404904 106.324C0.232445 105.09 0.0374911 103.84 0.0374911 102.598C0 69.3445 0 36.0914 0 2.83823C0 2.46181 0.0749823 2.09291 0.172459 1.24973Z"/>
    <path d="M110.839 55.7482C110.839 57.6002 110.839 59.0908 110.839 60.5889C110.839 90.3263 110.786 120.071 110.914 149.809C110.929 152.692 110.021 154.431 107.712 155.929C102.703 159.181 97.8069 162.607 92.2207 166.394V64.1348C54.3097 57.6227 23.8969 40.0513 3.92908 6.46695C32.2574 38.5381 69.5686 50.9902 110.839 55.7482Z"/>
    <path d="M129.089 44.3124C100.679 43.537 73.4301 39.6448 47.5088 29.4739C37.0113 25.3558 27.1286 19.5664 17.2459 14.033C12.6495 11.4583 8.73545 7.66397 4.66391 4.26111C49.0759 30.2568 97.4395 35.7375 147.873 32.538V36.6334C147.873 57.3442 147.49 78.0625 147.992 98.7581C148.39 114.959 139.887 126.297 129.089 137.921V44.3124Z"/>
    <path d="M4.48395 1.79177C52.2701 14.2513 99.9139 13.9276 147.828 0C147.828 4.72786 147.94 9.21482 147.715 13.6792C147.678 14.4245 146.253 15.5914 145.338 15.7345C135.605 17.2552 125.888 19.3481 116.095 19.8375C102.028 20.5376 87.8567 20.7559 73.8126 19.8826C49.9907 18.3995 27.0536 12.693 5.35374 2.4618C5.03132 2.31123 4.76888 2.01762 4.48395 1.79177Z"/>
  </g>
  <defs>
    <clipPath id="clip0_2_307">
      <rect width="148" height="176" fill="white"/>
    </clipPath>
  </defs>
</svg>
